# xmcd CD database file
#
# Track frame offsets:
#	182
#	15840
#	30187
#	51075
#	61167
#	77957
#	95140
#	107065
#	124810
#	134485
#	151990
#	166672
#	188345
#	201270
#	211672
#	229807
#	248282
#	264945
#
# Disc length: 3833 seconds
#
# Revision: 0
# Processed by: cddbd v1.4PL0 Copyright (c) Steve Scherf et al.
# Submitted via: CDex 1.50beta9
#
DISCID=d70ef712
DTITLE=Les Primitifs du Futur - Cocktail d'amour suivi de Bluestory and The New Blue 4
DYEAR=2002
DGENRE=Jazz
TTITLE0=Eddie and Lonnie
TTITLE1=Personne ne s'en sert maint'nant
TTITLE2=Accordéon Jo
TTITLE3=Dionnette
TTITLE4=Zoo blues (Best year for the Bestiary)
TTITLE5=My love parade
TTITLE6=Les trois salopards
TTITLE7=Blues, amour et bottleneck
TTITLE8=Washing the blues away (Didier au washboard)
TTITLE9=Pleurer comme une folle
TTITLE10=Ain't she sweet
TTITLE11=L'homme en bleu
TTITLE12=Leecan and Cooksey
TTITLE13=Charlotte hot step
TTITLE14=Coeur de plomb
TTITLE15=It's mint, my friend!
TTITLE16=Just a little swing
TTITLE17=Les mystères de la chambre bleue
EXTD=YEAR: 2002
EXTT0=
EXTT1=
EXTT2=
EXTT3=
EXTT4=
EXTT5=
EXTT6=
EXTT7=
EXTT8=
EXTT9=
EXTT10=
EXTT11=
EXTT12=
EXTT13=
EXTT14=
EXTT15=
EXTT16=
EXTT17=
PLAYORDER=
